<?xml version="1.0" encoding="UTF-8" standalone="no"?>
<!DOCTYPE svg PUBLIC "-//W3C//DTD SVG 1.1//EN" "http://www.w3.org/Graphics/SVG/1.1/DTD/svg11.dtd">
<svg width="100%" height="100%" viewBox="0 0 1000 1000" version="1.1" xmlns="http://www.w3.org/2000/svg" xmlns:xlink="http://www.w3.org/1999/xlink" xml:space="preserve" xmlns:serif="http://www.serif.com/" style="fill-rule:evenodd;clip-rule:evenodd;stroke-linejoin:round;stroke-miterlimit:2;">
    <g transform="matrix(1,0,0,1,-1050,-1050)">
        <rect id="Artboard5" x="1050" y="1050" width="1000" height="1000" style="fill:none;"/>
        <g id="Artboard51" serif:id="Artboard5">
            <g transform="matrix(1,0,0,1,911.147985,1102.171373)">
                <path d="M594.831,387.33C595.072,388.533 595.493,389.756 596.094,390.999C596.696,392.241 597.477,393.364 598.44,394.366C599.402,395.369 600.564,396.211 601.928,396.892C603.291,397.574 604.894,397.914 606.739,397.914C611.068,397.914 614.156,396.652 616,394.126C617.844,391.6 618.766,388.012 618.766,383.361L618.766,332.244L634.642,332.244L634.642,383.361C634.642,388.252 633.961,392.542 632.598,396.231C631.235,399.919 629.33,403.026 626.885,405.552C624.439,408.078 621.512,409.982 618.105,411.265C614.697,412.548 610.948,413.189 606.859,413.189C602.769,413.189 599.081,412.548 595.794,411.265C592.506,409.982 589.659,408.298 587.254,406.213C584.848,404.129 582.924,401.803 581.481,399.237C580.037,396.672 579.075,394.066 578.594,391.42L594.831,387.33Z" style="fill:rgb(255,200,0);fill-rule:nonzero;"/>
                <path d="M702.598,411.385L647.512,411.385L647.512,332.244L663.388,332.244L663.388,396.471L702.598,396.471L702.598,411.385Z" style="fill:rgb(255,200,0);fill-rule:nonzero;"/>
                <path d="M217.769,548.138C222.339,548.138 226.569,547.116 230.458,545.071C234.347,543.026 237.454,539.999 239.779,535.99L253.009,544.65C251.245,547.537 249.1,550.123 246.575,552.408C244.049,554.693 241.242,556.658 238.155,558.301C235.068,559.945 231.781,561.208 228.293,562.09C224.805,562.972 221.257,563.413 217.648,563.413C211.875,563.413 206.443,562.351 201.351,560.226C196.26,558.101 191.849,555.174 188.121,551.446C184.392,547.717 181.446,543.347 179.281,538.336C177.116,533.324 176.033,527.932 176.033,522.159C176.033,516.385 177.116,510.993 179.281,505.982C181.446,500.97 184.392,496.6 188.121,492.872C191.849,489.143 196.26,486.216 201.351,484.092C206.443,481.967 211.875,480.904 217.648,480.904C221.337,480.904 224.925,481.345 228.413,482.227C231.901,483.109 235.189,484.372 238.276,486.016C241.363,487.66 244.169,489.644 246.695,491.97C249.221,494.295 251.325,496.901 253.009,499.787L239.779,508.327C237.614,504.398 234.547,501.351 230.578,499.186C226.609,497.021 222.339,495.939 217.769,495.939C214.16,495.939 210.793,496.6 207.666,497.923C204.538,499.246 201.792,501.07 199.427,503.396C197.061,505.721 195.217,508.487 193.894,511.695C192.571,514.902 191.91,518.39 191.91,522.159C191.91,525.927 192.591,529.395 193.954,532.562C195.317,535.73 197.162,538.476 199.487,540.801C201.812,543.127 204.538,544.931 207.666,546.214C210.793,547.497 214.16,548.138 217.769,548.138Z" style="fill:rgb(255,200,0);fill-rule:nonzero;"/>
                <path d="M261.188,482.588L277.064,482.588L277.064,529.135C277.064,531.54 277.425,533.906 278.147,536.231C278.868,538.556 279.991,540.601 281.515,542.365C283.038,544.129 285.003,545.552 287.408,546.635C289.814,547.717 292.66,548.258 295.948,548.258C299.235,548.258 302.082,547.717 304.487,546.635C306.893,545.552 308.877,544.129 310.441,542.365C312.004,540.601 313.147,538.556 313.869,536.231C314.59,533.906 314.951,531.54 314.951,529.135L314.951,482.588L330.827,482.588L330.827,529.495C330.827,534.868 329.885,539.659 328.001,543.868C326.117,548.078 323.571,551.626 320.363,554.513C317.156,557.399 313.448,559.604 309.238,561.128C305.028,562.651 300.598,563.413 295.948,563.413C291.297,563.413 286.887,562.651 282.717,561.128C278.548,559.604 274.859,557.399 271.652,554.513C268.445,551.626 265.899,548.078 264.015,543.868C262.13,539.659 261.188,534.868 261.188,529.495L261.188,482.588Z" style="fill:rgb(255,200,0);fill-rule:nonzero;"/>
                <path d="M388.559,501.832C387.677,500.95 386.575,500.088 385.252,499.246C383.929,498.404 382.486,497.683 380.922,497.081C379.358,496.48 377.735,495.999 376.051,495.638C374.367,495.277 372.683,495.097 370.999,495.097C367.311,495.097 364.504,495.838 362.58,497.322C360.656,498.805 359.693,500.83 359.693,503.396C359.693,505.962 360.716,507.966 362.76,509.41C364.805,510.853 367.391,512.136 370.518,513.258C373.565,514.301 376.873,515.363 380.441,516.446C384.009,517.528 387.357,518.971 390.484,520.776C393.611,522.58 396.217,524.885 398.302,527.691C400.386,530.498 401.429,534.186 401.429,538.757C401.429,542.445 400.687,545.793 399.204,548.8C397.72,551.806 395.656,554.372 393.01,556.497C390.364,558.622 387.156,560.246 383.388,561.368C379.619,562.491 375.449,563.052 370.879,563.052C367.511,563.052 364.264,562.731 361.137,562.09C358.01,561.449 355.103,560.587 352.417,559.504C349.731,558.422 347.285,557.199 345.08,555.836C342.875,554.473 341.051,553.029 339.607,551.506L348.989,540.44C349.951,541.403 351.194,542.365 352.717,543.327C354.241,544.289 355.965,545.151 357.889,545.913C359.814,546.675 361.898,547.316 364.144,547.837C366.389,548.359 368.674,548.619 370.999,548.619C375.329,548.619 378.717,547.837 381.163,546.274C383.608,544.71 384.831,542.485 384.831,539.599C384.831,538.075 384.45,536.772 383.688,535.69C382.927,534.607 381.884,533.645 380.561,532.803C379.238,531.961 377.715,531.199 375.991,530.518C374.267,529.836 372.443,529.215 370.518,528.654C367.551,527.691 364.424,526.669 361.137,525.587C357.849,524.504 354.862,523.061 352.176,521.257C349.49,519.452 347.265,517.227 345.501,514.581C343.737,511.935 342.855,508.568 342.855,504.478C342.855,500.87 343.516,497.582 344.839,494.616C346.162,491.649 348.067,489.143 350.552,487.098C353.038,485.054 356.025,483.47 359.513,482.348C363.001,481.225 366.91,480.664 371.24,480.664C374.046,480.664 376.793,480.924 379.479,481.446C382.165,481.967 384.691,482.668 387.056,483.55C389.421,484.432 391.566,485.495 393.491,486.738C395.415,487.98 396.979,489.324 398.181,490.767L388.559,501.832Z" style="fill:rgb(255,200,0);fill-rule:nonzero;"/>
                <path d="M467.821,497.502L443.766,497.502L443.766,561.729L427.889,561.729L427.889,497.502L403.834,497.502L403.834,482.588L467.821,482.588L467.821,497.502Z" style="fill:rgb(255,200,0);fill-rule:nonzero;"/>
                <path d="M468.903,522.279C468.903,516.586 469.946,511.214 472.03,506.162C474.115,501.111 477.022,496.72 480.75,492.992C484.479,489.263 488.889,486.317 493.981,484.152C499.072,481.987 504.625,480.904 510.639,480.904C516.652,480.904 522.185,481.987 527.237,484.152C532.288,486.317 536.678,489.263 540.407,492.992C544.135,496.72 547.042,501.111 549.127,506.162C551.212,511.214 552.254,516.586 552.254,522.279C552.254,527.892 551.212,533.204 549.127,538.215C547.042,543.227 544.135,547.597 540.407,551.325C536.678,555.054 532.288,558.001 527.237,560.166C522.185,562.331 516.652,563.413 510.639,563.413C504.625,563.413 499.072,562.331 493.981,560.166C488.889,558.001 484.479,555.054 480.75,551.325C477.022,547.597 474.115,543.227 472.03,538.215C469.946,533.204 468.903,527.892 468.903,522.279ZM484.78,522.159C484.78,525.847 485.441,529.275 486.764,532.442C488.087,535.609 489.891,538.376 492.176,540.741C494.462,543.107 497.188,544.951 500.355,546.274C503.522,547.597 506.95,548.258 510.639,548.258C514.327,548.258 517.735,547.597 520.862,546.274C523.989,544.951 526.695,543.107 528.981,540.741C531.266,538.376 533.07,535.609 534.393,532.442C535.716,529.275 536.378,525.847 536.378,522.159C536.378,518.47 535.716,515.042 534.393,511.875C533.07,508.708 531.266,505.942 528.981,503.576C526.695,501.211 523.989,499.367 520.862,498.044C517.735,496.72 514.327,496.059 510.639,496.059C506.95,496.059 503.522,496.72 500.355,498.044C497.188,499.367 494.462,501.211 492.176,503.576C489.891,505.942 488.087,508.708 486.764,511.875C485.441,515.042 484.78,518.47 484.78,522.159Z" style="fill:rgb(255,200,0);fill-rule:nonzero;"/>
                <path d="M566.927,482.588L584.127,482.588L605.776,538.155L606.017,538.155L627.666,482.588L644.986,482.588L652.082,561.729L635.965,561.729L633.56,534.788L632.117,507.966L631.876,507.245L613.354,559.444L598.56,559.444L579.797,507.124L578.354,534.788L575.948,561.729L559.831,561.729L566.927,482.588Z" style="fill:rgb(255,200,0);fill-rule:nonzero;"/>
                <path d="M710.777,497.502L710.777,546.815L723.766,546.815C727.455,546.815 730.923,546.314 734.17,545.312C737.417,544.309 740.244,542.786 742.649,540.741C745.055,538.697 746.939,536.131 748.302,533.044C749.666,529.957 750.347,526.328 750.347,522.159C750.347,517.989 749.666,514.361 748.302,511.274C746.939,508.187 745.055,505.621 742.649,503.576C740.244,501.531 737.417,500.008 734.17,499.006C730.923,498.003 727.455,497.502 723.766,497.502L710.777,497.502ZM694.9,561.729L694.9,482.588L723.766,482.588C730.662,482.588 736.756,483.631 742.048,485.715C747.34,487.8 751.77,490.627 755.338,494.195C758.907,497.763 761.613,501.952 763.457,506.763C765.301,511.574 766.223,516.706 766.223,522.159C766.223,527.611 765.301,532.743 763.457,537.554C761.613,542.365 758.907,546.554 755.338,550.123C751.77,553.691 747.34,556.517 742.048,558.602C736.756,560.687 730.662,561.729 723.766,561.729L694.9,561.729Z" style="fill:rgb(255,200,0);fill-rule:nonzero;"/>
                <path d="M834.179,561.729L776.086,561.729L776.086,482.588L833.577,482.588L833.577,497.262L791.962,497.262L791.962,514.461L832.375,514.461L832.375,528.774L791.962,528.774L791.962,547.056L834.179,547.056L834.179,561.729Z" style="fill:rgb(255,200,0);fill-rule:nonzero;"/>
                <path d="M890.588,501.832C889.706,500.95 888.603,500.088 887.28,499.246C885.957,498.404 884.514,497.683 882.95,497.081C881.387,496.48 879.763,495.999 878.079,495.638C876.395,495.277 874.712,495.097 873.028,495.097C869.339,495.097 866.533,495.838 864.608,497.322C862.684,498.805 861.722,500.83 861.722,503.396C861.722,505.962 862.744,507.966 864.789,509.41C866.834,510.853 869.419,512.136 872.547,513.258C875.594,514.301 878.901,515.363 882.469,516.446C886.037,517.528 889.385,518.971 892.512,520.776C895.639,522.58 898.245,524.885 900.33,527.691C902.415,530.498 903.457,534.186 903.457,538.757C903.457,542.445 902.716,545.793 901.232,548.8C899.749,551.806 897.684,554.372 895.038,556.497C892.392,558.622 889.185,560.246 885.416,561.368C881.647,562.491 877.478,563.052 872.907,563.052C869.54,563.052 866.292,562.731 863.165,562.09C860.038,561.449 857.131,560.587 854.445,559.504C851.759,558.422 849.313,557.199 847.108,555.836C844.903,554.473 843.079,553.029 841.636,551.506L851.017,540.44C851.98,541.403 853.222,542.365 854.746,543.327C856.269,544.289 857.993,545.151 859.918,545.913C861.842,546.675 863.927,547.316 866.172,547.837C868.417,548.359 870.702,548.619 873.028,548.619C877.358,548.619 880.745,547.837 883.191,546.274C885.637,544.71 886.859,542.485 886.859,539.599C886.859,538.075 886.479,536.772 885.717,535.69C884.955,534.607 883.913,533.645 882.59,532.803C881.267,531.961 879.743,531.199 878.019,530.518C876.295,529.836 874.471,529.215 872.547,528.654C869.58,527.691 866.453,526.669 863.165,525.587C859.878,524.504 856.891,523.061 854.205,521.257C851.519,519.452 849.293,517.227 847.529,514.581C845.765,511.935 844.883,508.568 844.883,504.478C844.883,500.87 845.545,497.582 846.868,494.616C848.191,491.649 850.095,489.143 852.581,487.098C855.067,485.054 858.053,483.47 861.541,482.348C865.029,481.225 868.938,480.664 873.268,480.664C876.075,480.664 878.821,480.924 881.507,481.446C884.193,481.967 886.719,482.668 889.084,483.55C891.45,484.432 893.595,485.495 895.519,486.738C897.444,487.98 899.007,489.324 900.21,490.767L890.588,501.832Z" style="fill:rgb(255,200,0);fill-rule:nonzero;"/>
                <rect x="913.681" y="482.588" width="15.876" height="79.141" style="fill:rgb(255,200,0);fill-rule:nonzero;"/>
                <path d="M1021.568,525.286C1021.407,530.979 1020.385,536.171 1018.501,540.861C1016.616,545.552 1013.93,549.561 1010.442,552.889C1006.954,556.217 1002.744,558.782 997.813,560.587C992.882,562.391 987.329,563.293 981.155,563.293C975.141,563.293 969.589,562.23 964.497,560.105C959.405,557.981 954.995,555.054 951.267,551.325C947.538,547.597 944.632,543.247 942.547,538.276C940.462,533.304 939.42,527.932 939.42,522.159C939.42,516.385 940.482,510.993 942.607,505.982C944.732,500.97 947.658,496.6 951.387,492.872C955.116,489.143 959.546,486.196 964.677,484.031C969.809,481.866 975.382,480.784 981.396,480.784C988.853,480.784 995.648,482.528 1001.782,486.016C1007.916,489.504 1012.787,494.135 1016.396,499.908L1003.165,508.207C1001,504.518 998.014,501.552 994.205,499.306C990.396,497.061 986.046,495.939 981.155,495.939C977.547,495.939 974.179,496.6 971.052,497.923C967.925,499.246 965.179,501.07 962.813,503.396C960.448,505.721 958.603,508.487 957.28,511.695C955.957,514.902 955.296,518.39 955.296,522.159C955.296,525.847 955.977,529.295 957.341,532.502C958.704,535.71 960.548,538.456 962.873,540.741C965.199,543.026 967.925,544.831 971.052,546.154C974.179,547.477 977.547,548.138 981.155,548.138C984.763,548.138 987.911,547.757 990.597,546.995C993.283,546.234 995.548,545.151 997.392,543.748C999.236,542.345 1000.7,540.701 1001.782,538.817C1002.865,536.932 1003.606,534.868 1004.007,532.623L981.516,532.623L981.516,519.152L1021.568,519.152L1021.568,525.286Z" style="fill:rgb(255,200,0);fill-rule:nonzero;"/>
                <path d="M1031.55,482.588L1048.75,482.588L1085.794,535.269L1085.794,482.588L1101.671,482.588L1101.671,561.729L1085.313,561.729L1047.547,506.884L1047.547,561.729L1031.55,561.729L1031.55,482.588Z" style="fill:rgb(255,200,0);fill-rule:nonzero;"/>
            </g>
        </g>
    </g>
</svg>
